<?xml version="1.0" encoding="utf-8"?>
<!-- Generator: Adobe Illustrator 18.1.1, SVG Export Plug-In . SVG Version: 6.00 Build 0)  -->
<svg version="1.0" id="Layer_1" xmlns="http://www.w3.org/2000/svg" xmlns:xlink="http://www.w3.org/1999/xlink" x="0px" y="0px"
	 viewBox="231.6 346.8 500 93.3" enable-background="new 231.6 346.8 500 93.3" xml:space="preserve">
<g>
	<path fill="#FFFFFF" d="M264,351.6c7.8,0,13.9,2,18.4,6c4.5,4,6.8,9.2,6.8,15.7c0,6.5-2.3,11.7-6.8,15.7c-4.5,4-10.6,5.9-18.4,5.9
		h-11.5v15.1l7.3,1.4v8.2h-28.2v-8.2l7.2-1.4v-48.8l-7.2-1.4v-8.2h7.2H264z M252.5,384.5H264c3.8,0,6.7-1,8.6-3.1
		c1.9-2.1,2.9-4.7,2.9-7.9c0-3.3-1-6-2.9-8.1c-1.9-2.1-4.8-3.2-8.6-3.2h-11.5V384.5z"/>
	<path fill="#FFFFFF" d="M325.5,419.7c-0.4-0.8-0.7-1.7-1-2.6c-0.3-0.9-0.5-1.8-0.7-2.7c-1.6,1.9-3.6,3.4-5.9,4.5
		c-2.3,1.2-5,1.7-8,1.7c-5,0-8.9-1.3-11.8-4c-2.9-2.7-4.4-6.4-4.4-11c0-4.7,1.9-8.4,5.7-11c3.8-2.6,9.4-3.9,16.7-3.9h7v-5
		c0-2.4-0.7-4.3-2.1-5.7c-1.4-1.3-3.5-2-6.2-2c-1.6,0-2.9,0.2-4.2,0.5c-1.2,0.4-2.2,0.8-2.9,1.3l-0.9,5.4h-10.3l0-11.2
		c2.5-1.7,5.3-3.1,8.6-4.3c3.2-1.2,6.7-1.7,10.5-1.7c6.3,0,11.3,1.5,15.3,4.6c3.9,3.1,5.9,7.4,5.9,13.1v20.9c0,0.8,0,1.5,0,2.2
		c0,0.7,0.1,1.3,0.2,2l4.2,0.6v8.2H325.5z M313.7,410.5c2.1,0,3.9-0.4,5.6-1.3c1.7-0.9,3-2,3.9-3.3v-7.7h-7c-2.9,0-5.1,0.7-6.6,2
		c-1.5,1.4-2.2,3-2.2,4.9c0,1.7,0.6,3.1,1.7,4C310.2,410.1,311.7,410.5,313.7,410.5z"/>
	<path fill="#FFFFFF" d="M362.3,356.7v12.4h8.9v9.6h-8.9v25.7c0,2,0.4,3.4,1.2,4.2c0.8,0.8,1.9,1.3,3.3,1.3c0.9,0,1.8,0,2.5-0.1
		c0.7-0.1,1.5-0.2,2.4-0.4l1.2,9.9c-1.5,0.5-3,0.8-4.5,1.1c-1.5,0.2-3.1,0.4-4.9,0.4c-4.7,0-8.3-1.3-10.9-3.9
		c-2.5-2.6-3.8-6.7-3.8-12.3v-25.8h-7.4v-9.6h7.4v-12.4H362.3z"/>
	<path fill="#FFFFFF" d="M378.8,411.5l6.5-1.4v-31.3l-7.2-1.4v-8.2h19.9l0.6,7.4c1.2-2.6,2.7-4.7,4.6-6.1c1.9-1.5,4-2.2,6.5-2.2
		c0.7,0,1.5,0.1,2.3,0.2c0.8,0.1,1.5,0.2,2,0.4l-1.4,12.4L407,381c-2,0-3.6,0.4-5,1.2c-1.3,0.8-2.3,1.9-3,3.3v24.6l6.5,1.4v8.2
		h-26.7V411.5z"/>
	<path fill="#FFFFFF" d="M417.1,393.9c0-7.5,2.1-13.7,6.3-18.5c4.2-4.8,10.1-7.2,17.5-7.2c7.5,0,13.3,2.4,17.5,7.2
		c4.2,4.8,6.3,11,6.3,18.5v1c0,7.6-2.1,13.8-6.3,18.6c-4.2,4.8-10,7.2-17.4,7.2c-7.5,0-13.4-2.4-17.6-7.2c-4.2-4.8-6.3-11-6.3-18.6
		V393.9z M430.8,394.9c0,4.6,0.8,8.3,2.4,11.1c1.6,2.8,4.2,4.2,7.8,4.2c3.5,0,6.1-1.4,7.7-4.2c1.6-2.8,2.5-6.5,2.5-11.1v-1
		c0-4.5-0.8-8.1-2.5-11c-1.7-2.8-4.3-4.3-7.8-4.3c-3.6,0-6.1,1.4-7.8,4.3c-1.6,2.8-2.4,6.5-2.4,11V394.9z"/>
	<path fill="#FFFFFF" d="M470,411.5l6.5-1.4v-31.3l-7.2-1.4v-8.2h19.9l0.6,7.2c1.7-2.6,3.8-4.6,6.2-6c2.5-1.4,5.2-2.1,8.3-2.1
		c5.1,0,9.1,1.6,12,4.8c2.9,3.2,4.3,8.2,4.3,15.1v22l6.5,1.4v8.2h-26.1v-8.2l5.8-1.4v-22c0-3.4-0.7-5.8-2.1-7.2
		c-1.4-1.4-3.4-2.1-6.2-2.1c-1.8,0-3.4,0.4-4.9,1.1c-1.4,0.7-2.6,1.8-3.6,3.1v27.1l5.5,1.4v8.2H470V411.5z"/>
	<path fill="#FFFFFF" d="M531.1,411.5l6.6-1.4v-31.3l-7.3-1.4v-8.2h20.9v41l6.5,1.4v8.2h-26.8V411.5z M551.3,357h-13.6v-10.2h13.6
		V357z"/>
	<path fill="#FFFFFF" d="M586.1,410.2c2.4,0,4.4-0.7,5.8-2.1c1.5-1.4,2.2-3.3,2.2-5.7h12.3l0.1,0.3c0.1,5.1-1.8,9.4-5.7,12.8
		c-4,3.4-8.9,5.2-14.8,5.2c-7.5,0-13.3-2.4-17.4-7.1c-4.1-4.8-6.1-10.9-6.1-18.4v-1.4c0-7.4,2.1-13.6,6.3-18.4
		c4.2-4.8,10.2-7.2,17.9-7.2c4.1,0,7.7,0.6,11,1.8c3.2,1.2,5.9,2.9,8.1,5.1l0.2,13.5h-11.1l-2.2-7.9c-0.7-0.6-1.5-1.1-2.5-1.5
		c-1-0.4-2.1-0.6-3.4-0.6c-3.9,0-6.6,1.4-8.2,4.2c-1.6,2.8-2.4,6.4-2.4,10.8v1.4c0,4.5,0.7,8.2,2.2,10.9
		C579.8,408.8,582.4,410.2,586.1,410.2z"/>
	<path fill="#FFFFFF" d="M612.3,411.5l6.6-1.4v-31.3l-7.3-1.4v-8.2h20.9v41l6.5,1.4v8.2h-26.8V411.5z M632.6,357h-13.6v-10.2h13.6
		V357z"/>
	<path fill="#FFFFFF" d="M663.7,356.7v12.4h8.9v9.6h-8.9v25.7c0,2,0.4,3.4,1.2,4.2c0.8,0.8,1.9,1.3,3.3,1.3c0.9,0,1.8,0,2.5-0.1
		c0.7-0.1,1.5-0.2,2.4-0.4l1.2,9.9c-1.5,0.5-3,0.8-4.5,1.1c-1.5,0.2-3.1,0.4-4.9,0.4c-4.7,0-8.3-1.3-10.9-3.9
		c-2.5-2.6-3.8-6.7-3.8-12.3v-25.8h-7.4v-9.6h7.4v-12.4H663.7z"/>
	<path fill="#FFFFFF" d="M731.6,377.3l-4.7,0.7l-18.6,49.2c-1.5,3.6-3.4,6.7-5.9,9.2c-2.4,2.5-6.1,3.7-11,3.7
		c-1.2,0-2.2-0.1-3.2-0.3c-1-0.2-2.2-0.5-3.6-0.8l1.6-9.9c0.4,0.1,0.9,0.1,1.4,0.2c0.5,0.1,0.9,0.1,1.2,0.1c2.3,0,4-0.6,5.2-1.7
		c1.2-1.1,2.1-2.5,2.8-4.1l1.5-3.8l-16-41.6l-4.7-0.7v-8.2h24.8v8.2l-5.7,0.9l6.9,20.2l0.7,3.6l0.3,0l8-23.9l-5.7-0.9v-8.2h24.8
		V377.3z"/>
</g>
</svg>
